<?xml version="1.0" standalone="no"?>
<!DOCTYPE svg PUBLIC "-//W3C//DTD SVG 20010904//EN"
 "http://www.w3.org/TR/2001/REC-SVG-20010904/DTD/svg10.dtd">
<svg version="1.0" xmlns="http://www.w3.org/2000/svg"
 width="260.000000pt" height="260.000000pt" viewBox="0 0 260.000000 260.000000"
 preserveAspectRatio="xMidYMid meet">
<metadata>
Created by potrace 1.14, written by Peter Selinger 2001-2017
</metadata>
<g transform="translate(0.000000,260.000000) scale(0.100000,-0.100000)"
fill="#000000" stroke="none">
<path d="M1213 2555 c-29 -8 -70 -25 -90 -39 -79 -50 -989 -1000 -1024 -1067
-45 -90 -35 -209 25 -293 31 -44 418 -454 729 -772 87 -89 170 -181 186 -205
57 -91 124 -139 194 -139 40 0 189 53 231 82 17 12 79 68 137 125 59 57 113
103 121 103 9 0 36 16 61 35 47 36 91 93 137 177 15 26 133 158 276 305 267
276 297 316 309 418 3 28 11 67 17 88 16 52 -7 95 -74 144 -86 62 -336 323
-344 358 -8 40 -65 124 -109 158 -20 16 -59 39 -88 52 -41 18 -76 48 -152 130
-55 59 -107 119 -116 133 -43 69 -204 186 -284 207 -70 18 -75 18 -142 0z
m102 -114 c3 -5 -4 -12 -15 -16 -31 -10 -66 -62 -114 -175 -49 -111 -79 -150
-140 -182 -75 -39 -176 -21 -176 31 0 20 293 313 335 335 33 17 101 21 110 7z
m290 -241 c43 -44 77 -81 74 -83 -2 -2 -29 -11 -59 -20 -78 -24 -186 -91 -330
-206 -69 -55 -148 -111 -177 -125 -112 -56 -242 -48 -310 17 -35 33 -48 64
-58 141 -7 48 -6 49 41 97 l47 48 27 -43 c29 -46 80 -76 127 -76 53 1 110 38
224 147 127 121 161 147 216 168 76 28 91 22 178 -65z m-912 -369 c9 -138 79
-229 205 -268 43 -14 89 -18 182 -17 156 1 209 18 452 142 189 97 245 114 381
114 l78 0 87 -92 c48 -51 89 -97 90 -101 2 -5 -20 -9 -50 -9 -105 -1 -267 -34
-538 -110 -213 -60 -337 -87 -470 -100 -220 -23 -450 30 -564 130 -34 30 -86
120 -86 148 0 13 209 242 221 242 3 0 9 -36 12 -79z m-213 -339 c63 -84 186
-152 350 -194 94 -25 142 -31 265 -35 169 -6 291 8 510 58 225 52 299 62 485
63 145 1 186 -2 238 -18 61 -18 62 -19 62 -55 -1 -66 -34 -112 -224 -306
l-185 -190 0 61 c-1 86 -40 160 -101 192 -41 22 -53 23 -145 19 -55 -3 -176
-21 -270 -41 -211 -43 -307 -51 -459 -37 -290 28 -506 121 -634 273 -49 58
-75 104 -91 163 l-11 40 67 67 68 68 25 -48 c14 -26 36 -63 50 -80z m-251
-124 c39 -131 154 -249 356 -362 203 -113 328 -143 663 -156 154 -6 238 -14
271 -25 97 -32 141 -105 149 -248 l5 -89 -84 -84 c-46 -46 -86 -84 -89 -84 -3
0 -4 17 -2 38 5 49 -12 109 -41 153 -38 56 -111 85 -287 114 -178 28 -407 84
-474 116 -34 16 -105 82 -269 253 -253 263 -264 280 -236 379 5 20 14 37 18
37 4 0 13 -19 20 -42z m814 -844 c168 -49 217 -83 217 -146 0 -33 -48 -91 -91
-108 l-31 -13 -164 165 c-90 91 -164 170 -164 176 0 6 24 0 55 -14 31 -13 111
-40 178 -60z"/>
</g>
</svg>
